<svg xmlns="http://www.w3.org/2000/svg" viewBox="0 0 64 80" x="0px" y="0px"><title>monkey</title><g><circle cx="27.5" cy="31.5" r="1.5"/><circle cx="36.5" cy="31.5" r="1.5"/><path d="M16,13H10.84l-3-.51A4.53,4.53,0,0,1,4,8V7h9a3,3,0,0,1,3,3Zm-4.92-2H14V10a1,1,0,0,0-1-1H6.2a2.54,2.54,0,0,0,1.92,1.51Z"/><path d="M41,32.75l-1.91-4.28A5.63,5.63,0,0,0,34,25H30a5.63,5.63,0,0,0-5.11,3.47L23,32.75V24a1,1,0,0,0-1-1H17a7,7,0,0,1-7-7V11h6v4a1,1,0,0,0,1,1H47a1,1,0,0,0,1-1V11h6v5a7,7,0,0,1-7,7H42a1,1,0,0,0-1,1ZM30,23h4a7.42,7.42,0,0,1,5,2V24a3,3,0,0,1,3-3h5a5,5,0,0,0,5-5V13H50v2a3,3,0,0,1-3,3H17a3,3,0,0,1-3-3V13H12v3a5,5,0,0,0,5,5h5a3,3,0,0,1,3,3v1A7.42,7.42,0,0,1,30,23Z"/><path d="M53.08,13H48V10a3,3,0,0,1,3-3h9V8a4.53,4.53,0,0,1-3.79,4.48ZM50,11h2.92l3-.49A2.54,2.54,0,0,0,57.8,9H51a1,1,0,0,0-1,1Z"/><path d="M32,21a1,1,0,0,1-1-1V17a3,3,0,0,0-3-3H26a3,3,0,0,1,0-6H38a1,1,0,0,0,0-2H32a1,1,0,0,1,0-2h6a3,3,0,0,1,0,6H26a1,1,0,0,0,0,2h2a5,5,0,0,1,5,5v3A1,1,0,0,1,32,21Z"/><path d="M35.31,44H28.69a7.41,7.41,0,0,1-4.27-1.38,8,8,0,0,1-1.19-1A8.5,8.5,0,0,1,21,35.81a6,6,0,0,1,0-.72,4,4,0,0,1,.05-.46,7,7,0,0,1,.25-1.2l1.32-4.64a8.7,8.7,0,0,1,.43-1.16A7.7,7.7,0,0,1,30,23h4a7.69,7.69,0,0,1,6.93,4.65,7.57,7.57,0,0,1,.43,1.14l1.32,4.64a7,7,0,0,1,.25,1.2c0,.16,0,.32.06.47s0,.48,0,.71a8.16,8.16,0,0,1-.38,2.49,5.35,5.35,0,0,1-.17.55c-.06.17-.14.37-.22.55a8,8,0,0,1-3,3.44,7,7,0,0,1-1.51.74A6.92,6.92,0,0,1,35.31,44ZM30,25a5.63,5.63,0,0,0-5.11,3.47,6.78,6.78,0,0,0-.33.86L23.26,34a5.69,5.69,0,0,0-.19.93l0,.12a1.79,1.79,0,0,0,0,.23c0,.21,0,.39,0,.56a6.47,6.47,0,0,0,1.69,4.41,5,5,0,0,0,.87.75,5.38,5.38,0,0,0,3.13,1h6.62a5.11,5.11,0,0,0,1.75-.3,4.88,4.88,0,0,0,1.1-.54,6,6,0,0,0,2.24-2.58l.17-.41a3.7,3.7,0,0,0,.13-.4,6.35,6.35,0,0,0,.3-2,4.53,4.53,0,0,0,0-.52A1.87,1.87,0,0,0,41,35l0-.12a5.69,5.69,0,0,0-.19-.93l-1.32-4.63a5.79,5.79,0,0,0-.33-.86A5.62,5.62,0,0,0,34,25Z"/><path d="M30,56H24V39.87L25.58,41a5.33,5.33,0,0,0,3.11,1H32v2a2,2,0,0,0-2,2Zm-4-2h2V46a4,4,0,0,1,.54-2A7.38,7.38,0,0,1,26,43.48Z"/><path d="M27,60H18V59a4.53,4.53,0,0,1,3.79-4.48L25,54h5v3A3,3,0,0,1,27,60Zm-6.8-2H27a1,1,0,0,0,1-1V56H25.08l-3,.49A2.54,2.54,0,0,0,20.2,58Z"/><path d="M54,44H35.31V42a5.11,5.11,0,0,0,1.75-.3,4.88,4.88,0,0,0,1.1-.54,6,6,0,0,0,2.24-2.58l.27-.58H54ZM40.34,42H52V40H41.92A8.11,8.11,0,0,1,40.34,42Z"/><path d="M55,44H52V38.84l.51-3.05A4.53,4.53,0,0,1,57,32h1v9A3,3,0,0,1,55,44Zm-1-2h1a1,1,0,0,0,1-1V34.2a2.54,2.54,0,0,0-1.51,1.92l-.49,3Z"/><path d="M32,40a1,1,0,0,1-1-1V35a1,1,0,0,1,2,0v4A1,1,0,0,1,32,40Z"/><path d="M33,36H31a1,1,0,0,1,0-2h2a1,1,0,0,1,0,2Z"/><path d="M21,36a4,4,0,0,1,0-8,3.92,3.92,0,0,1,3.1,1.49l.32.39-.17.64-1,3.45a5.69,5.69,0,0,0-.19.93l-.06.58-.54.23A3.82,3.82,0,0,1,21,36Zm0-6a2,2,0,0,0,0,4h.2c0-.18.08-.36.14-.56l.86-3A2,2,0,0,0,21,30Z"/><path d="M43,36a3.82,3.82,0,0,1-1.47-.29L41,35.48l-.06-.58a5.69,5.69,0,0,0-.19-.93l-1.06-3.86v-.36l.23-.29A4,4,0,1,1,43,36Zm-.2-2H43a2,2,0,0,0,0-4,2,2,0,0,0-1.2.4l.86,3C42.72,33.63,42.76,33.81,42.8,34Z"/><path d="M32,41a5.94,5.94,0,0,1-4.21-1.74,1,1,0,0,1,1.42-1.42,4,4,0,0,0,5.58,0,1,1,0,0,1,1.42,1.42A5.94,5.94,0,0,1,32,41Z"/></g><text x="0" y="79" fill="#000000" font-size="5px" font-weight="bold" font-family="'Helvetica Neue', Helvetica, Arial-Unicode, Arial, Sans-serif">Created by tezar tantular</text><text x="0" y="84" fill="#000000" font-size="5px" font-weight="bold" font-family="'Helvetica Neue', Helvetica, Arial-Unicode, Arial, Sans-serif">from the Noun Project</text></svg>